<?xml version="1.0" encoding="utf-8"?>
<!-- Generator: Adobe Illustrator 18.0.0, SVG Export Plug-In . SVG Version: 6.00 Build 0)  -->
<!DOCTYPE svg PUBLIC "-//W3C//DTD SVG 1.1//EN" "http://www.w3.org/Graphics/SVG/1.1/DTD/svg11.dtd">
<svg version="1.1" id="Layer_1" xmlns="http://www.w3.org/2000/svg" xmlns:xlink="http://www.w3.org/1999/xlink" x="0px" y="0px"
	 viewBox="0 0 43.9 43.9" enable-background="new 0 0 43.9 43.9" xml:space="preserve">
<g>
	
		<polygon fill="none" stroke="#6374B7" stroke-width="0.4" stroke-linecap="round" stroke-linejoin="bevel" stroke-miterlimit="10" points="
		17.6,24.6 26.8,25.5 25.6,16.2 	"/>
	
		<polyline fill="none" stroke="#6374B7" stroke-width="0.4" stroke-linecap="round" stroke-linejoin="bevel" stroke-miterlimit="10" points="
		37.9,13.5 29.8,6.9 25.6,16.2 29.8,6.9 35.1,18.7 37.9,13.5 39.1,23.6 33.8,28.4 35.1,33.1 26.2,38.5 20.2,32.6 12.9,36.6 
		6.5,28.4 9.8,19.7 17.6,24.6 20.2,32.6 26.8,25.5 35.1,18.7 33.8,28.4 26.8,25.5 28.9,31.6 33.8,28.4 26.8,25.5 28.9,31.6 20,32.5 
		20.2,32.6 6.5,28.4 17.6,24.6 16.2,10.2 9.8,19.7 5.9,18.1 10.7,9 16.3,10.2 16.2,10.2 5.9,18.1 6.5,28.4 13.1,36.6 26.3,38.5 
		26.2,38.5 28.9,31.6 35.1,33.1 39.1,23.6 35.1,18.7 25.6,16.2 16.2,10.4 19.8,4.3 10.6,9 16.3,10.2 29.8,6.9 19.8,4.3 	"/>
	<g>
		<circle fill="#6374B7" cx="19.8" cy="4.3" r="0.8"/>
		<circle fill="#6374B7" cx="29.9" cy="6.9" r="0.8"/>
		<circle fill="#6374B7" cx="10.7" cy="9" r="0.8"/>
		<circle fill="#6374B7" cx="16.1" cy="10.3" r="0.8"/>
		<circle fill="#6374B7" cx="25.5" cy="16.2" r="0.8"/>
		<circle fill="#6374B7" cx="37.9" cy="13.4" r="0.8"/>
		<circle fill="#6374B7" cx="35.1" cy="18.7" r="0.8"/>
		<circle fill="#6374B7" cx="39.1" cy="23.7" r="0.8"/>
		<circle fill="#6374B7" cx="6" cy="18.2" r="0.8"/>
		<circle fill="#6374B7" cx="9.8" cy="19.6" r="0.8"/>
		<circle fill="#6374B7" cx="17.6" cy="24.5" r="0.8"/>
		<circle fill="#6374B7" cx="6.5" cy="28.4" r="0.8"/>
		<circle fill="#6374B7" cx="26.8" cy="25.5" r="0.8"/>
		<circle fill="#6374B7" cx="33.8" cy="28.4" r="0.8"/>
		<circle fill="#6374B7" cx="20.3" cy="32.6" r="0.8"/>
		<circle fill="#6374B7" cx="13" cy="36.6" r="0.8"/>
		<circle fill="#6374B7" cx="26.2" cy="38.5" r="0.8"/>
		<circle fill="#6374B7" cx="28.9" cy="31.6" r="0.8"/>
		<circle fill="#6374B7" cx="35.1" cy="33.1" r="0.8"/>
	</g>
</g>
</svg>
