<?xml version="1.0" encoding="utf-8"?>
<!-- Generator: Adobe Illustrator 18.0.0, SVG Export Plug-In . SVG Version: 6.00 Build 0)  -->
<!DOCTYPE svg PUBLIC "-//W3C//DTD SVG 1.1//EN" "http://www.w3.org/Graphics/SVG/1.1/DTD/svg11.dtd">
<svg version="1.1" id="Layer_1" xmlns="http://www.w3.org/2000/svg" xmlns:xlink="http://www.w3.org/1999/xlink" x="0px" y="0px"
	 viewBox="0 0 44 43.9" enable-background="new 0 0 44 43.9" xml:space="preserve">
<g>
	<polygon fill="#F47529" points="36.9,11.4 22.6,4.4 22.6,39.2 23.2,39.2 36.9,32.3 	"/>
	<polygon fill="#994522" points="22.6,4.4 19.7,5.7 19.7,38.2 22,39.2 22.6,39.2 	"/>
	<polygon fill="#F47529" points="19.7,8.1 17,7.1 17,36.8 19.7,35.7 	"/>
	<polygon fill="#994522" points="17,7 14.8,8.1 14.8,35.9 17,36.8 	"/>
	<polygon fill="#F47529" points="14.8,10 12.4,9.1 12.4,34.8 14.8,33.8 	"/>
	<polygon fill="#994522" points="12.4,9.1 10.6,10.1 10.6,33.9 12.4,34.8 	"/>
	<polygon fill="#F47529" points="10.6,11.8 8.5,11 8.5,33 10.6,32.1 	"/>
	<polygon fill="#994522" points="8.5,11 6.8,11.8 6.8,32.2 8.5,33 	"/>
	<path fill="none" stroke="#71CDDD" stroke-width="1.000000e-002" stroke-miterlimit="10" d="M22.6,4.4"/>
	<path fill="none" stroke="#71CDDD" stroke-width="1.000000e-002" stroke-miterlimit="10" d="M22,39.2"/>
</g>
</svg>
