<?xml version="1.0" encoding="utf-8"?>
<!-- Generator: Adobe Illustrator 18.0.0, SVG Export Plug-In . SVG Version: 6.00 Build 0)  -->
<!DOCTYPE svg PUBLIC "-//W3C//DTD SVG 1.1//EN" "http://www.w3.org/Graphics/SVG/1.1/DTD/svg11.dtd">
<svg version="1.1" id="Layer_1" xmlns="http://www.w3.org/2000/svg" xmlns:xlink="http://www.w3.org/1999/xlink" x="0px" y="0px"
	 viewBox="0 0 43.9 44.2" enable-background="new 0 0 43.9 44.2" xml:space="preserve">
<g>
	<polygon fill="#25ADE4" points="22.2,4.1 31,9.4 31,19.3 22.2,14.3 	"/>
	<polygon fill="#0C9BD3" points="22.2,4.1 13.3,9.1 13.3,19.5 22.2,14.3 	"/>
	<polygon fill="#7BCDF3" points="22.2,14.3 22.2,24.5 31,19.3 	"/>
	<polygon fill="#37C2EB" points="22.2,14.3 13.3,19.5 22.2,24.5 	"/>
	<polygon fill="#04638E" points="13.3,19.5 13.3,30 22.2,24.5 	"/>
	<polygon fill="#7ACFF2" points="13.3,19.5 4.6,24.5 13.3,30 	"/>
	<polygon fill="#14436B" points="22.2,24.5 22.2,35.1 13.3,30 	"/>
	<polygon fill="#1FB1E7" points="22.2,35.1 31,29.7 22.2,24.5 	"/>
	<polygon fill="#0C9BD3" points="31,19.3 31,29.7 22.2,24.5 	"/>
	<polygon fill="#0E436C" points="31,19.3 39.9,24.5 31,29.7 	"/>
	<polygon fill="#0E436C" points="39.9,24.5 39.9,34.8 31,29.7 	"/>
	<polygon fill="#04638E" points="39.9,34.8 31,39.9 22.2,35.1 31,29.7 	"/>
	<polygon fill="#37C1EC" points="22.2,35.1 13.3,39.9 4.6,34.7 13.3,30 	"/>
	<polygon fill="#7ACFF2" points="13.3,30 4.6,34.7 4.6,24.5 	"/>
</g>
</svg>
