<?xml version="1.0" encoding="utf-8"?>
<!-- Generator: Adobe Illustrator 18.0.0, SVG Export Plug-In . SVG Version: 6.00 Build 0)  -->
<!DOCTYPE svg PUBLIC "-//W3C//DTD SVG 1.1//EN" "http://www.w3.org/Graphics/SVG/1.1/DTD/svg11.dtd">
<svg version="1.1" id="Layer_1" xmlns="http://www.w3.org/2000/svg" xmlns:xlink="http://www.w3.org/1999/xlink" x="0px" y="0px"
	 viewBox="0 0 44 43.9" enable-background="new 0 0 44 43.9" xml:space="preserve">
<g>
	<polygon fill="#1ABEF0" points="21.6,22 6.8,24.3 6.8,35.2 21.6,36.9 	"/>
	<line fill="none" stroke="#FFFFFF" stroke-miterlimit="10" x1="21.7" y1="29.5" x2="6.6" y2="29.5"/>
	<line fill="none" stroke="#FFFFFF" stroke-miterlimit="10" x1="13" y1="23.1" x2="13" y2="36.9"/>
</g>
<path fill="none" stroke="#1ABEF0" stroke-miterlimit="10" d="M22.4,31.6c0,0,14.2,0,15.1,0c0.6,0,3.8-0.6,3.8-4.1
	c0-2.9-2.4-4.4-5.2-4c0,0,2.2-4.4-0.5-9.1c-2.3-3.9-8.3-8.5-15.9-4.5c-4.1,2.1-5.4,6.7-5.4,6.7S9,14.4,5.4,18.8
	c-3,3.5-1.9,8.3,0.5,10.9"/>
</svg>
